<svg width="41" height="40" viewBox="0 0 41 40" fill="none" xmlns="http://www.w3.org/2000/svg">
<path d="M13.4831 26.6666V18.3333M20.1497 26.6666V13.3333M26.8164 26.6666V23.3333M30.1497 6.66663H10.1497C9.26568 6.66663 8.41784 7.01782 7.79272 7.64294C7.1676 8.26806 6.81641 9.1159 6.81641 9.99996V30C6.81641 30.884 7.1676 31.7319 7.79272 32.357C8.41784 32.9821 9.26568 33.3333 10.1497 33.3333H30.1497C31.0338 33.3333 31.8816 32.9821 32.5068 32.357C33.1319 31.7319 33.4831 30.884 33.4831 30V9.99996C33.4831 9.1159 33.1319 8.26806 32.5068 7.64294C31.8816 7.01782 31.0338 6.66663 30.1497 6.66663Z" stroke="#5E17EB" stroke-width="2" stroke-linecap="round" stroke-linejoin="round"/>
</svg>
