<svg
	width="30"
	height="30"
	viewBox="0 0 30 30"
	fill="none"
	xmlns="http://www.w3.org/2000/svg"
>
	<path
		d="M8.3834 21.6667V13.3333M15.0501 21.6667V8.33333M21.7167 21.6667V18.3333M25.0501 1.66666H5.05007C4.16601 1.66666 3.31817 2.01785 2.69305 2.64297C2.06793 3.2681 1.71674 4.11594 1.71674 5V25C1.71674 25.8841 2.06793 26.7319 2.69305 27.357C3.31817 27.9821 4.16601 28.3333 5.05007 28.3333H25.0501C25.9341 28.3333 26.782 27.9821 27.4071 27.357C28.0322 26.7319 28.3834 25.8841 28.3834 25V5C28.3834 4.11594 28.0322 3.2681 27.4071 2.64297C26.782 2.01785 25.9341 1.66666 25.0501 1.66666Z"
		stroke="#5F5F5F"
		stroke-width="2"
		strokeLinecap="round"
		stroke-linejoin="round"
	/>
</svg>