<svg width="20" height="20" viewBox="0 0 20 20" fill="none" xmlns="http://www.w3.org/2000/svg">
	<circle cx="10" cy="10" r="8" fill="white"/>
	<path d="M9.99917 1.66083C5.40417 1.66166 1.66583 5.39999 1.66583 9.99499C1.66583 14.59 5.40417 18.3283 10 18.3283C14.5942 18.3283 18.3325 14.59 18.3333 9.99499C18.3333 5.39999 14.595 1.66166 9.99917 1.66083ZM10 16.6617C6.32333 16.6617 3.3325 13.6708 3.3325 9.99499C3.3325 6.31916 6.32333 3.32833 9.99917 3.32749C13.6758 3.32833 16.6667 6.31916 16.6667 9.99499C16.6658 13.6708 13.675 16.6617 10 16.6617Z" fill="#5E17EB"/>
	<path d="M9.99996 9.16166H6.66663V10.8283H9.99996V13.3333L13.3375 9.99583L9.99996 6.65916V9.16166Z" fill="#5E17EB"/>
</svg>
