<svg width="55" height="55" viewBox="0 0 55 55" fill="none" xmlns="http://www.w3.org/2000/svg">
	<path d="M29.8582 10.6081L36.5521 6.46938L48.5376 14.8259L41.1664 20.4703M41.4838 32.7857L48.698 26.8961M41.4838 29.7367L48.698 23.8471M41.4838 26.6887L48.698 20.7992M41.4838 23.6408L48.698 17.7512M18.9258 16.4358L27.7544 10.9358L39.5267 20.8908V35.2894L32.6895 40.8306V27.2903L18.9258 16.4358Z" stroke="#5E17EB" stroke-linecap="round" stroke-linejoin="round"/>
	<path d="M40.464 16.2388L43.5841 13.8589L41.4471 12.43L39.7307 13.7259M6.30212 36.614L21.8201 48.5306L30.3257 41.7587" stroke="#5E17EB" stroke-linecap="round" stroke-linejoin="round"/>
	<path d="M6.30212 33.5557L21.8201 45.4724L30.3257 38.7005" stroke="#5E17EB" stroke-linecap="round" stroke-linejoin="round"/>
	<path d="M6.42126 30.4975L21.9393 42.4153L30.4448 35.6434" stroke="#5E17EB" stroke-linecap="round" stroke-linejoin="round"/>
	<path d="M6.40527 27.4404L21.9221 39.3571L30.4277 32.5852M23.186 27.2135C22.927 28.3903 21.245 28.9942 19.43 28.5599C17.615 28.1268 16.3534 26.8217 16.6124 25.6438C16.8713 24.467 18.5534 23.8643 20.3684 24.2974C22.1834 24.7305 23.445 26.0368 23.186 27.2135Z" stroke="#5E17EB" stroke-linecap="round" stroke-linejoin="round"/>
	<path d="M17.246 18.134L6.59546 24.5449L21.8706 36.1373L30.6247 29.2451" stroke="#5E17EB" stroke-linecap="round" stroke-linejoin="round"/>
</svg>