<svg width="23" height="24" viewBox="0 0 23 24" fill="none" xmlns="http://www.w3.org/2000/svg">
<path d="M15.475 5.90792L17.592 8.02492M16.836 4.04292L11.109 9.76992C10.8131 10.0654 10.6113 10.4419 10.529 10.8519L10 13.4999L12.648 12.9699C13.058 12.8879 13.434 12.6869 13.73 12.3909L19.457 6.66392C19.6291 6.49182 19.7656 6.28751 19.8588 6.06266C19.9519 5.8378 19.9998 5.5968 19.9998 5.35342C19.9998 5.11004 19.9519 4.86904 19.8588 4.64418C19.7656 4.41932 19.6291 4.21502 19.457 4.04292C19.2849 3.87082 19.0806 3.73431 18.8557 3.64117C18.6309 3.54803 18.3899 3.50009 18.1465 3.50009C17.9031 3.50009 17.6621 3.54803 17.4373 3.64117C17.2124 3.73431 17.0081 3.87082 16.836 4.04292Z" stroke="white" stroke-width="2" stroke-linecap="round" stroke-linejoin="round"/>
<path d="M18 15.4999V18.4999C18 19.0303 17.7893 19.539 17.4142 19.9141C17.0391 20.2892 16.5304 20.4999 16 20.4999H5C4.46957 20.4999 3.96086 20.2892 3.58579 19.9141C3.21071 19.539 3 19.0303 3 18.4999V7.49991C3 6.96948 3.21071 6.46077 3.58579 6.08569C3.96086 5.71062 4.46957 5.49991 5 5.49991H8" stroke="white" stroke-width="2" stroke-linecap="round" stroke-linejoin="round"/>
</svg>
