<svg width="21" height="20" viewBox="0 0 21 20" fill="none" xmlns="http://www.w3.org/2000/svg">
<path d="M18.3822 19.9122C18.5763 19.9122 18.7337 19.7557 18.7337 19.5622V11.5662C18.7337 11.3728 18.5763 11.2162 18.3822 11.2162C18.188 11.2162 18.0306 11.3728 18.0306 11.5662V19.2122H0.929687V3.25371H8.54304C8.73719 3.25371 8.8946 3.09717 8.8946 2.90371C8.8946 2.71025 8.73719 2.55371 8.54304 2.55371H0.578125C0.383976 2.55371 0.226562 2.71025 0.226562 2.90371V19.5622C0.226562 19.7557 0.383976 19.9122 0.578125 19.9122H18.3822Z" fill="black" fill-opacity="0.6"/>
<path d="M20.2328 0.682211C20.2194 0.655701 20.2031 0.631689 20.1835 0.609387C20.1754 0.600223 20.1683 0.591016 20.1593 0.582706C20.132 0.557434 20.1012 0.535986 20.0661 0.5202C20.063 0.51879 20.0606 0.516312 20.0574 0.514987L20.0565 0.514453C20.0165 0.497726 19.9749 0.491425 19.9333 0.490057C19.9293 0.489929 19.926 0.487793 19.9219 0.487793H14.1658C13.9716 0.487793 13.8142 0.644336 13.8142 0.837793C13.8142 1.03125 13.9716 1.18779 14.1658 1.18779H19.0732L9.2319 10.9854C9.09457 11.1221 9.09457 11.3436 9.2319 11.4803C9.30057 11.5487 9.39052 11.5829 9.48047 11.5829C9.57042 11.5829 9.66037 11.5487 9.72903 11.4803L19.5704 1.68271V6.30176C19.5704 6.49521 19.7278 6.65176 19.9219 6.65176C20.1161 6.65176 20.2735 6.49521 20.2735 6.30176V0.837793C20.2735 0.794855 20.2634 0.754288 20.2487 0.715558C20.2443 0.703745 20.2385 0.693362 20.2328 0.682211Z" fill="black" fill-opacity="0.6"/>
</svg>
