<svg
	width="35"
	height="34"
	viewBox="0 0 35 34"
	fill="none"
	xmlns="http://www.w3.org/2000/svg"
>
	<path
		d="M17.4166 27C18 27 18.4933 26.7983 18.8966 26.395C19.3 25.9917 19.5011 25.4989 19.5 24.9167C19.4989 24.3344 19.2978 23.8411 18.8966 23.4367C18.4955 23.0322 18.0022 22.8311 17.4166 22.8333C16.8311 22.8355 16.3383 23.0372 15.9383 23.4383C15.5383 23.8394 15.3366 24.3322 15.3333 24.9167C15.33 25.5011 15.5316 25.9944 15.9383 26.3967C16.345 26.7989 16.8378 27 17.4166 27ZM15.9166 20.5833H19C19 19.6667 19.1044 18.9444 19.3133 18.4167C19.5222 17.8889 20.1122 17.1667 21.0833 16.25C21.8055 15.5278 22.375 14.84 22.7916 14.1867C23.2083 13.5333 23.4166 12.7489 23.4166 11.8333C23.4166 10.2778 22.8472 9.08332 21.7083 8.24999C20.5694 7.41666 19.2222 6.99999 17.6666 6.99999C16.0833 6.99999 14.7989 7.41666 13.8133 8.24999C12.8278 9.08332 12.14 10.0833 11.75 11.25L14.5 12.3333C14.6389 11.8333 14.9516 11.2917 15.4383 10.7083C15.925 10.125 16.6678 9.83332 17.6666 9.83332C18.5555 9.83332 19.2222 10.0767 19.6666 10.5633C20.1111 11.05 20.3333 11.5844 20.3333 12.1667C20.3333 12.7222 20.1666 13.2433 19.8333 13.73C19.5 14.2167 19.0833 14.6678 18.5833 15.0833C17.3611 16.1667 16.6111 16.9861 16.3333 17.5417C16.0555 18.0972 15.9166 19.1111 15.9166 20.5833ZM17.5 33.6667C15.1944 33.6667 13.0278 33.2294 11 32.355C8.9722 31.4805 7.20831 30.2928 5.70832 28.7917C4.20832 27.2905 3.02109 25.5267 2.14665 23.5C1.2722 21.4733 0.834426 19.3067 0.833315 17C0.832204 14.6933 1.26998 12.5267 2.14665 10.5C3.02332 8.47332 4.21054 6.70943 5.70832 5.20832C7.20609 3.70721 8.96998 2.51999 11 1.64665C13.03 0.773322 15.1966 0.335544 17.5 0.333321C19.8033 0.331099 21.97 0.768877 24 1.64665C26.03 2.52443 27.7939 3.71165 29.2917 5.20832C30.7894 6.70499 31.9772 8.46888 32.855 10.5C33.7328 12.5311 34.17 14.6978 34.1666 17C34.1633 19.3022 33.7255 21.4689 32.8533 23.5C31.9811 25.5311 30.7939 27.295 29.2917 28.7917C27.7894 30.2883 26.0255 31.4761 24 32.355C21.9744 33.2339 19.8078 33.6711 17.5 33.6667ZM17.5 30.3333C21.2222 30.3333 24.375 29.0417 26.9583 26.4583C29.5416 23.875 30.8333 20.7222 30.8333 17C30.8333 13.2778 29.5416 10.125 26.9583 7.54165C24.375 4.95832 21.2222 3.66665 17.5 3.66665C13.7778 3.66665 10.625 4.95832 8.04165 7.54165C5.45831 10.125 4.16665 13.2778 4.16665 17C4.16665 20.7222 5.45831 23.875 8.04165 26.4583C10.625 29.0417 13.7778 30.3333 17.5 30.3333Z"
		fill="#5E17EB"
	/>
</svg>