<svg
	width="34"
	height="34"
	viewBox="0 0 34 34"
	fill="none"
	xmlns="http://www.w3.org/2000/svg"
>
	<path
		d="M30.3834 13.6667C30.3834 13.2246 30.2078 12.8007 29.8952 12.4882C29.5827 12.1756 29.1588 12 28.7167 12C28.2747 12 27.8508 12.1756 27.5382 12.4882C27.2257 12.8007 27.0501 13.2246 27.0501 13.6667H30.3834ZM7.05006 13.6667C7.05006 13.2246 6.87447 12.8007 6.56191 12.4882C6.24935 12.1756 5.82542 12 5.3834 12C4.94137 12 4.51744 12.1756 4.20488 12.4882C3.89232 12.8007 3.71673 13.2246 3.71673 13.6667H7.05006ZM30.8717 18.1783C31.1861 18.4819 31.6071 18.6499 32.0441 18.6461C32.4811 18.6423 32.8991 18.467 33.2081 18.158C33.5171 17.849 33.6924 17.431 33.6962 16.994C33.7 16.557 33.532 16.136 33.2284 15.8217L30.8717 18.1783ZM17.0501 2.00001L18.2284 0.821672C17.9158 0.50922 17.492 0.333694 17.0501 0.333694C16.6081 0.333694 16.1843 0.50922 15.8717 0.821672L17.0501 2.00001ZM0.871729 15.8217C0.712545 15.9754 0.585575 16.1593 0.498226 16.3627C0.410878 16.566 0.364901 16.7847 0.362978 17.006C0.361055 17.2273 0.403224 17.4468 0.487026 17.6516C0.570827 17.8564 0.694583 18.0425 0.85107 18.199C1.00756 18.3555 1.19364 18.4792 1.39847 18.563C1.6033 18.6468 1.82277 18.689 2.04406 18.6871C2.26536 18.6852 2.48406 18.6392 2.6874 18.5518C2.89074 18.4645 3.07465 18.3375 3.2284 18.1783L0.871729 15.8217ZM8.71673 33.6667H25.3834V30.3333H8.71673V33.6667ZM30.3834 28.6667V13.6667H27.0501V28.6667H30.3834ZM7.05006 28.6667V13.6667H3.71673V28.6667H7.05006ZM33.2284 15.8217L18.2284 0.821672L15.8717 3.17834L30.8717 18.1783L33.2284 15.8217ZM15.8717 0.821672L0.871729 15.8217L3.2284 18.1783L18.2284 3.17834L15.8717 0.821672ZM25.3834 33.6667C26.7095 33.6667 27.9812 33.1399 28.9189 32.2022C29.8566 31.2645 30.3834 29.9928 30.3834 28.6667H27.0501C27.0501 29.1087 26.8745 29.5326 26.5619 29.8452C26.2493 30.1577 25.8254 30.3333 25.3834 30.3333V33.6667ZM8.71673 30.3333C8.2747 30.3333 7.85078 30.1577 7.53822 29.8452C7.22566 29.5326 7.05006 29.1087 7.05006 28.6667H3.71673C3.71673 29.9928 4.24351 31.2645 5.18119 32.2022C6.11888 33.1399 7.39065 33.6667 8.71673 33.6667V30.3333Z"
		fill="#5E17EB"
	/>
</svg>