<svg width="41" height="40" viewBox="0 0 41 40" fill="none" xmlns="http://www.w3.org/2000/svg">
<path d="M33.3833 16.6667C33.3833 16.2246 33.2077 15.8007 32.8951 15.4881C32.5826 15.1756 32.1586 15 31.7166 15C31.2746 15 30.8507 15.1756 30.5381 15.4881C30.2255 15.8007 30.0499 16.2246 30.0499 16.6667H33.3833ZM10.0499 16.6667C10.0499 16.2246 9.87434 15.8007 9.56178 15.4881C9.24922 15.1756 8.8253 15 8.38327 15C7.94125 15 7.51732 15.1756 7.20476 15.4881C6.8922 15.8007 6.71661 16.2246 6.71661 16.6667H10.0499ZM33.8716 21.1783C34.1859 21.4819 34.6069 21.6499 35.0439 21.6461C35.4809 21.6423 35.899 21.467 36.208 21.158C36.517 20.849 36.6923 20.431 36.6961 19.994C36.6999 19.557 36.5319 19.136 36.2283 18.8217L33.8716 21.1783ZM20.0499 4.99999L21.2283 3.82166C20.9157 3.5092 20.4919 3.33368 20.0499 3.33368C19.608 3.33368 19.1842 3.5092 18.8716 3.82166L20.0499 4.99999ZM3.87161 18.8217C3.71242 18.9754 3.58545 19.1593 3.4981 19.3626C3.41076 19.566 3.36478 19.7847 3.36286 20.006C3.36093 20.2273 3.4031 20.4468 3.4869 20.6516C3.57071 20.8564 3.69446 21.0425 3.85095 21.199C4.00744 21.3555 4.19352 21.4792 4.39835 21.563C4.60318 21.6468 4.82264 21.689 5.04394 21.6871C5.26524 21.6852 5.48394 21.6392 5.68728 21.5518C5.89062 21.4645 6.07453 21.3375 6.22827 21.1783L3.87161 18.8217ZM11.7166 36.6667H28.3833V33.3333H11.7166V36.6667ZM33.3833 31.6667V16.6667H30.0499V31.6667H33.3833ZM10.0499 31.6667V16.6667H6.71661V31.6667H10.0499ZM36.2283 18.8217L21.2283 3.82166L18.8716 6.17832L33.8716 21.1783L36.2283 18.8217ZM18.8716 3.82166L3.87161 18.8217L6.22827 21.1783L21.2283 6.17832L18.8716 3.82166ZM28.3833 36.6667C29.7094 36.6667 30.9811 36.1399 31.9188 35.2022C32.8565 34.2645 33.3833 32.9927 33.3833 31.6667H30.0499C30.0499 32.1087 29.8743 32.5326 29.5618 32.8452C29.2492 33.1577 28.8253 33.3333 28.3833 33.3333V36.6667ZM11.7166 33.3333C11.2746 33.3333 10.8507 33.1577 10.5381 32.8452C10.2255 32.5326 10.0499 32.1087 10.0499 31.6667H6.71661C6.71661 32.9927 7.24339 34.2645 8.18107 35.2022C9.11875 36.1399 10.3905 36.6667 11.7166 36.6667V33.3333Z" fill="#5F5F5F"/>
</svg>
