<svg width="40" height="40" viewBox="0 0 40 40" fill="none" xmlns="http://www.w3.org/2000/svg">
<g clip-path="url(#clip0_433_79)">
<mask id="mask0_433_79" style="mask-type:luminance" maskUnits="userSpaceOnUse" x="0" y="0" width="40" height="40">
<path d="M0 0H40V40H0V0Z" fill="white"/>
<path fill-rule="evenodd" clip-rule="evenodd" d="M27.7335 15.7415C28.0469 15.4805 28.4511 15.3546 28.8573 15.3915C29.2635 15.4285 29.6384 15.6252 29.8996 15.9384L33.1042 19.7846C33.3539 20.0992 33.4706 20.499 33.4294 20.8985C33.3883 21.298 33.1925 21.6656 32.884 21.9227C32.5754 22.1798 32.1786 22.3061 31.7782 22.2746C31.3778 22.243 31.0056 22.0561 30.7412 21.7538L27.535 17.9077C27.274 17.5943 27.1481 17.19 27.185 16.7838C27.222 16.3776 27.4187 16.0027 27.7319 15.7415" fill="black"/>
<path fill-rule="evenodd" clip-rule="evenodd" d="M27.7338 25.7969C27.4203 25.5359 27.2233 25.1611 27.1861 24.7549C27.1489 24.3487 27.2745 23.9444 27.5354 23.6308L30.7415 19.7846C30.869 19.6239 31.0274 19.4903 31.2073 19.3917C31.3872 19.2931 31.585 19.2315 31.789 19.2105C31.9931 19.1895 32.1993 19.2095 32.3955 19.2693C32.5917 19.3292 32.774 19.4276 32.9316 19.559C33.0892 19.6903 33.2189 19.8518 33.3132 20.034C33.4074 20.2162 33.4643 20.4155 33.4804 20.62C33.4965 20.8245 33.4716 21.0301 33.407 21.2249C33.3425 21.4196 33.2397 21.5994 33.1046 21.7538L29.9 25.6C29.6388 25.9132 29.2639 26.11 28.8577 26.1469C28.4515 26.1838 28.0472 26.0579 27.7338 25.7969Z" fill="black"/>
<path fill-rule="evenodd" clip-rule="evenodd" d="M31.5382 20.7692C31.5382 21.1773 31.3761 21.5686 31.0876 21.8571C30.799 22.1456 30.4077 22.3077 29.9997 22.3077H19.9997C19.5917 22.3077 19.2004 22.1456 18.9118 21.8571C18.6233 21.5686 18.4612 21.1773 18.4612 20.7692C18.4612 20.3612 18.6233 19.9699 18.9118 19.6814C19.2004 19.3929 19.5917 19.2308 19.9997 19.2308H29.9997C30.4077 19.2308 30.799 19.3929 31.0876 19.6814C31.3761 19.9699 31.5382 20.3612 31.5382 20.7692ZM9.23047 9.99999C9.23047 9.59197 9.39256 9.20066 9.68107 8.91214C9.96959 8.62362 10.3609 8.46153 10.7689 8.46153H24.6151C25.0231 8.46153 25.4144 8.62362 25.7029 8.91214C25.9915 9.20066 26.1535 9.59197 26.1535 9.99999C26.1535 10.408 25.9915 10.7993 25.7029 11.0879C25.4144 11.3764 25.0231 11.5385 24.6151 11.5385H10.7689C10.3609 11.5385 9.96959 11.3764 9.68107 11.0879C9.39256 10.7993 9.23047 10.408 9.23047 9.99999ZM9.23047 31.5385C9.23047 31.1304 9.39256 30.7391 9.68107 30.4506C9.96959 30.1621 10.3609 30 10.7689 30H24.6151C25.0231 30 25.4144 30.1621 25.7029 30.4506C25.9915 30.7391 26.1535 31.1304 26.1535 31.5385C26.1535 31.9465 25.9915 32.3378 25.7029 32.6263C25.4144 32.9148 25.0231 33.0769 24.6151 33.0769H10.7689C10.3609 33.0769 9.96959 32.9148 9.68107 32.6263C9.39256 32.3378 9.23047 31.9465 9.23047 31.5385Z" fill="black"/>
<path fill-rule="evenodd" clip-rule="evenodd" d="M24.6151 8.46153C25.0231 8.46153 25.4144 8.62362 25.7029 8.91214C25.9915 9.20066 26.1535 9.59197 26.1535 9.99999V16.1538C26.1535 16.5619 25.9915 16.9532 25.7029 17.2417C25.4144 17.5302 25.0231 17.6923 24.6151 17.6923C24.2071 17.6923 23.8157 17.5302 23.5272 17.2417C23.2387 16.9532 23.0766 16.5619 23.0766 16.1538V9.99999C23.0766 9.59197 23.2387 9.20066 23.5272 8.91214C23.8157 8.62362 24.2071 8.46153 24.6151 8.46153ZM24.6151 23.8461C25.0231 23.8461 25.4144 24.0082 25.7029 24.2968C25.9915 24.5853 26.1535 24.9766 26.1535 25.3846V31.5385C26.1535 31.9465 25.9915 32.3378 25.7029 32.6263C25.4144 32.9148 25.0231 33.0769 24.6151 33.0769C24.2071 33.0769 23.8157 32.9148 23.5272 32.6263C23.2387 32.3378 23.0766 31.9465 23.0766 31.5385V25.3846C23.0766 24.9766 23.2387 24.5853 23.5272 24.2968C23.8157 24.0082 24.2071 23.8461 24.6151 23.8461ZM10.7689 8.46153C11.177 8.46153 11.5683 8.62362 11.8568 8.91214C12.1453 9.20066 12.3074 9.59197 12.3074 9.99999V31.5385C12.3074 31.9465 12.1453 32.3378 11.8568 32.6263C11.5683 32.9148 11.177 33.0769 10.7689 33.0769C10.3609 33.0769 9.96959 32.9148 9.68107 32.6263C9.39256 32.3378 9.23047 31.9465 9.23047 31.5385V9.99999C9.23047 9.59197 9.39256 9.20066 9.68107 8.91214C9.96959 8.62362 10.3609 8.46153 10.7689 8.46153Z" fill="black"/>
</mask>
<g mask="url(#mask0_433_79)">
<path d="M20 40C31.0457 40 40 31.0457 40 20C40 8.9543 31.0457 0 20 0C8.9543 0 0 8.9543 0 20C0 31.0457 8.9543 40 20 40Z" fill="#5F5F5F"/>
</g>
</g>
<defs>
<clipPath id="clip0_433_79">
<rect width="40" height="40" fill="white"/>
</clipPath>
</defs>
</svg>
