<svg width="13" height="18" viewBox="0 0 13 18" fill="none" xmlns="http://www.w3.org/2000/svg">
<path d="M0.166579 1.5L0.166579 16.5C0.167056 16.6519 0.208941 16.8007 0.287728 16.9306C0.366514 17.0604 0.479216 17.1663 0.613706 17.2368C0.748196 17.3074 0.899379 17.3399 1.05098 17.3309C1.20258 17.3219 1.34887 17.2718 1.47408 17.1858L12.3074 9.68583C12.7566 9.375 12.7566 8.62667 12.3074 8.315L1.47408 0.815C1.34913 0.728187 1.20277 0.677279 1.05092 0.667804C0.899062 0.65833 0.747514 0.690653 0.61274 0.761262C0.477966 0.83187 0.365118 0.938063 0.28646 1.0683C0.207801 1.19854 0.16634 1.34785 0.166579 1.5ZM10.3691 9L1.83325 14.91L1.83325 3.09L10.3691 9Z" fill="#5E17EB"/>
</svg>
