<svg width="41" height="40" viewBox="0 0 41 40" fill="none" xmlns="http://www.w3.org/2000/svg">
<path d="M24.5617 6.80164C24.6064 6.98619 24.694 7.15758 24.8175 7.30188C24.9409 7.44618 25.0967 7.55931 25.2721 7.63206C25.4475 7.70482 25.6376 7.73516 25.8269 7.7206C26.0162 7.70605 26.1994 7.64702 26.3617 7.5483C30.4267 5.0733 35.0783 9.7233 32.6033 13.7883C32.5046 13.9504 32.4455 14.1335 32.4309 14.3228C32.4162 14.512 32.4464 14.702 32.519 14.8774C32.5916 15.0528 32.7045 15.2085 32.8486 15.3321C32.9927 15.4556 33.1639 15.5434 33.3483 15.5883C37.9733 16.71 37.9733 23.2883 33.3483 24.4116C33.1638 24.4564 32.9924 24.544 32.8481 24.6674C32.7038 24.7909 32.5907 24.9466 32.5179 25.122C32.4451 25.2974 32.4148 25.4875 32.4294 25.6769C32.4439 25.8662 32.503 26.0494 32.6017 26.2116C35.0767 30.2766 30.4267 34.9283 26.3617 32.4533C26.1996 32.3546 26.0164 32.2955 25.8272 32.2808C25.638 32.2662 25.448 32.2964 25.2726 32.369C25.0972 32.4415 24.9414 32.5545 24.8179 32.6986C24.6944 32.8427 24.6066 33.0139 24.5617 33.1983C23.44 37.8233 16.8617 37.8233 15.7383 33.1983C15.6936 33.0138 15.606 32.8424 15.4825 32.6981C15.3591 32.5538 15.2033 32.4406 15.0279 32.3679C14.8525 32.2951 14.6624 32.2648 14.4731 32.2793C14.2838 32.2939 14.1005 32.3529 13.9383 32.4516C9.87333 34.9266 5.22166 30.2766 7.69666 26.2116C7.79538 26.0495 7.85447 25.8664 7.86912 25.6772C7.88378 25.488 7.85359 25.2979 7.781 25.1226C7.70842 24.9472 7.59549 24.7914 7.45138 24.6679C7.30728 24.5444 7.13607 24.4566 6.95166 24.4116C2.32666 23.29 2.32666 16.7116 6.95166 15.5883C7.13621 15.5436 7.30761 15.4559 7.45191 15.3325C7.5962 15.2091 7.70933 15.0533 7.78209 14.8779C7.85485 14.7025 7.88518 14.5124 7.87063 14.3231C7.85607 14.1337 7.79704 13.9505 7.69833 13.7883C5.22333 9.7233 9.87333 5.07164 13.9383 7.54664C14.1003 7.6461 14.2835 7.7058 14.4729 7.72083C14.6624 7.73586 14.8527 7.70581 15.0283 7.63313C15.2039 7.56045 15.3598 7.44721 15.4832 7.30268C15.6066 7.15816 15.694 6.98645 15.7383 6.80164C16.86 2.17664 23.4383 2.17664 24.5617 6.80164ZM20.15 15C18.8239 15 17.5521 15.5268 16.6145 16.4644C15.6768 17.4021 15.15 18.6739 15.15 20C15.15 21.3261 15.6768 22.5978 16.6145 23.5355C17.5521 24.4732 18.8239 25 20.15 25C21.4761 25 22.7478 24.4732 23.6855 23.5355C24.6232 22.5978 25.15 21.3261 25.15 20C25.15 18.6739 24.6232 17.4021 23.6855 16.4644C22.7478 15.5268 21.4761 15 20.15 15Z" fill="#5E17EB"/>
</svg>
