<svg
width="34"
height="34"
viewBox="0 0 34 34"
fill="none"
xmlns="http://www.w3.org/2000/svg"
>
<path
	d="M21.4617 3.80167C21.5064 3.98622 21.594 4.15761 21.7175 4.30191C21.8409 4.44621 21.9967 4.55934 22.1721 4.6321C22.3475 4.70485 22.5376 4.73519 22.7269 4.72064C22.9162 4.70608 23.0995 4.64705 23.2617 4.54833C27.3267 2.07333 31.9784 6.72333 29.5034 10.7883C29.4046 10.9504 29.3455 11.1335 29.3309 11.3228C29.3162 11.512 29.3464 11.702 29.419 11.8774C29.4916 12.0528 29.6045 12.2086 29.7486 12.3321C29.8927 12.4556 30.0639 12.5434 30.2484 12.5883C34.8734 13.71 34.8734 20.2883 30.2484 21.4117C30.0638 21.4564 29.8924 21.544 29.7481 21.6675C29.6038 21.7909 29.4907 21.9467 29.4179 22.1221C29.3452 22.2975 29.3148 22.4876 29.3294 22.6769C29.3439 22.8662 29.403 23.0495 29.5017 23.2117C31.9767 27.2767 27.3267 31.9283 23.2617 29.4533C23.0996 29.3546 22.9165 29.2955 22.7272 29.2809C22.538 29.2662 22.348 29.2964 22.1726 29.369C21.9972 29.4416 21.8415 29.5545 21.7179 29.6986C21.5944 29.8427 21.5066 30.0139 21.4617 30.1983C20.34 34.8233 13.7617 34.8233 12.6384 30.1983C12.5936 30.0138 12.506 29.8424 12.3826 29.6981C12.2591 29.5538 12.1034 29.4407 11.928 29.3679C11.7526 29.2951 11.5625 29.2648 11.3731 29.2794C11.1838 29.2939 11.0006 29.353 10.8384 29.4517C6.77335 31.9267 2.12168 27.2767 4.59669 23.2117C4.69541 23.0496 4.75449 22.8665 4.76915 22.6772C4.7838 22.488 4.75361 22.298 4.68103 22.1226C4.60844 21.9472 4.49551 21.7914 4.35141 21.6679C4.2073 21.5444 4.03609 21.4566 3.85169 21.4117C-0.773316 20.29 -0.773316 13.7117 3.85169 12.5883C4.03624 12.5436 4.20763 12.456 4.35193 12.3325C4.49623 12.2091 4.60935 12.0533 4.68211 11.8779C4.75487 11.7025 4.78521 11.5124 4.77065 11.3231C4.7561 11.1338 4.69706 10.9506 4.59835 10.7883C2.12335 6.72333 6.77335 2.07167 10.8384 4.54667C11.0003 4.64613 11.1835 4.70583 11.3729 4.72086C11.5624 4.73589 11.7527 4.70584 11.9283 4.63316C12.1039 4.56048 12.2598 4.44724 12.3832 4.30271C12.5066 4.15819 12.5941 3.98649 12.6384 3.80167C13.76 -0.823334 20.3384 -0.823334 21.4617 3.80167ZM17.05 12C15.7239 12 14.4522 12.5268 13.5145 13.4645C12.5768 14.4021 12.05 15.6739 12.05 17C12.05 18.3261 12.5768 19.5979 13.5145 20.5355C14.4522 21.4732 15.7239 22 17.05 22C18.3761 22 19.6479 21.4732 20.5856 20.5355C21.5232 19.5979 22.05 18.3261 22.05 17C22.05 15.6739 21.5232 14.4021 20.5856 13.4645C19.6479 12.5268 18.3761 12 17.05 12Z"
	fill="#5F5F5F"
/>
</svg>