<svg width="22" height="20" viewBox="0 0 22 20" fill="none" xmlns="http://www.w3.org/2000/svg">
<path d="M17.0319 0.162588C17.0036 0.133709 16.9717 0.111153 16.938 0.0936763C16.9309 0.0899917 16.9234 0.0890706 16.9161 0.0859088C16.8831 0.071519 16.8491 0.062656 16.814 0.0592204C16.8012 0.0579756 16.7891 0.0580005 16.7762 0.0582245C16.744 0.0587473 16.7125 0.0643489 16.6809 0.074382C16.67 0.0778425 16.6593 0.0795604 16.6486 0.0841661C16.6439 0.0861826 16.6389 0.0862325 16.6342 0.088498C16.5978 0.106124 16.5658 0.130647 16.5372 0.159003C16.5356 0.160597 16.5335 0.16097 16.5319 0.162588L12.0353 4.76136C11.886 4.91392 11.8767 5.17205 12.0148 5.33775C12.0873 5.42459 12.1862 5.46881 12.2855 5.46881C12.3747 5.46881 12.4645 5.43295 12.5353 5.36046L16.4135 1.39411V19.3273C16.4135 19.5527 16.5785 19.7352 16.7819 19.7352C16.9853 19.7352 17.1503 19.5527 17.1503 19.3273V1.39424L21.0283 5.36046C21.1779 5.51382 21.4112 5.50266 21.5488 5.33775C21.6869 5.17205 21.6776 4.91392 21.5283 4.76136L17.0319 0.162588Z" fill="white"/>
<path d="M5.2648 19.6766C5.27838 19.6851 5.28989 19.6973 5.30417 19.7038C5.34842 19.7238 5.39525 19.7352 5.44285 19.7352C5.49044 19.7352 5.53779 19.7233 5.58276 19.7028C5.58527 19.7016 5.58802 19.7022 5.59051 19.701C5.6268 19.6834 5.65877 19.659 5.68735 19.6307C5.68903 19.6291 5.69119 19.6286 5.69285 19.6269L10.1894 15.0281C10.3387 14.8756 10.3481 14.6174 10.2099 14.4517C10.0723 14.2872 9.83941 14.2761 9.6894 14.429L5.8112 18.3954V0.462216C5.8112 0.236759 5.64627 0.0543213 5.44285 0.0543213C5.23942 0.0543213 5.07449 0.236759 5.07449 0.462216V18.3952L1.19647 14.429C1.04718 14.2761 0.813901 14.2868 0.675946 14.4517C0.537812 14.6174 0.547164 14.8756 0.696451 15.0281L5.19284 19.6269C5.21419 19.6487 5.24016 19.6612 5.2648 19.6766Z" fill="white"/>
</svg>
