<svg width="16" height="16" viewBox="0 0 16 16" fill="none" xmlns="http://www.w3.org/2000/svg">
<path fill-rule="evenodd" clip-rule="evenodd" d="M1.25 10.9967C1.44891 10.9967 1.63968 11.0757 1.78033 11.2164C1.92098 11.357 2 11.5478 2 11.7467V13.9997C2 14.1377 2.112 14.2497 2.25 14.2497H14.25C14.3163 14.2497 14.3799 14.2234 14.4268 14.1765C14.4737 14.1296 14.5 14.066 14.5 13.9997V11.7467C14.5 11.5478 14.579 11.357 14.7197 11.2164C14.8603 11.0757 15.0511 10.9967 15.25 10.9967C15.4489 10.9967 15.6397 11.0757 15.7803 11.2164C15.921 11.357 16 11.5478 16 11.7467V13.9997C16 14.4638 15.8156 14.909 15.4874 15.2372C15.1592 15.5653 14.7141 15.7497 14.25 15.7497H2.25C1.78587 15.7497 1.34075 15.5653 1.01256 15.2372C0.684375 14.909 0.5 14.4638 0.5 13.9997V11.7467C0.5 11.5478 0.579018 11.357 0.71967 11.2164C0.860322 11.0757 1.05109 10.9967 1.25 10.9967Z" fill="black"/>
<path fill-rule="evenodd" clip-rule="evenodd" d="M8.45215 1.57971C8.65106 1.57971 8.84183 1.65873 8.98248 1.79938C9.12313 1.94003 9.20215 2.1308 9.20215 2.32971V10.4157C9.20215 10.6146 9.12313 10.8054 8.98248 10.946C8.84183 11.0867 8.65106 11.1657 8.45215 11.1657C8.25324 11.1657 8.06247 11.0867 7.92182 10.946C7.78117 10.8054 7.70215 10.6146 7.70215 10.4157V2.33071C7.70215 2.1318 7.78117 1.94103 7.92182 1.80038C8.06247 1.65973 8.25324 1.57971 8.45215 1.57971Z" fill="black"/>
<path fill-rule="evenodd" clip-rule="evenodd" d="M7.92842 0.46372C8.06852 0.3269 8.25658 0.250305 8.45241 0.250305C8.64824 0.250305 8.83631 0.3269 8.97641 0.46372L12.3204 3.72972C12.4598 3.86934 12.5385 4.05823 12.5396 4.25548C12.5406 4.45273 12.4639 4.64246 12.3261 4.78357C12.1883 4.92468 12.0004 5.00582 11.8032 5.0094C11.606 5.01299 11.4153 4.93873 11.2724 4.80272L8.45241 2.04872L5.63241 4.80272C5.56227 4.873 5.47887 4.92866 5.38704 4.96645C5.29522 5.00425 5.19681 5.02344 5.09751 5.0229C4.99822 5.02237 4.90001 5.00212 4.80861 4.96333C4.7172 4.92454 4.6344 4.86799 4.56502 4.79696C4.49564 4.72592 4.44105 4.64181 4.40443 4.54951C4.36781 4.45722 4.34988 4.35857 4.35169 4.25928C4.35349 4.16 4.37499 4.06207 4.41494 3.97116C4.45489 3.88026 4.5125 3.79819 4.58441 3.72972L7.92842 0.46372Z" fill="black"/>
</svg>
