<svg
	width="62"
	height="60"
	viewBox="0 0 62 60"
	fill="none"
	xmlns="http://www.w3.org/2000/svg"
>
	<ellipse cx="31" cy="30" rx="31" ry="30" fill="white" />
	<path
		d="M32.1483 25C37.2212 25 41.3335 20.5228 41.3335 15C41.3335 9.47715 37.2212 5 32.1483 5C27.0755 5 22.9631 9.47715 22.9631 15C22.9631 20.5228 27.0755 25 32.1483 25Z"
		stroke="black"
		stroke-width="1.5"
	/>
	<path
		d="M50.514 45C50.5186 44.59 50.5186 44.1725 50.5186 43.75C50.5186 37.5375 42.2932 32.5 32.1482 32.5C22.0032 32.5 13.7778 37.5375 13.7778 43.75C13.7778 49.9625 13.7778 55 32.1482 55C37.2712 55 40.966 54.6075 43.6297 53.9075"
		stroke="black"
		stroke-width="1.5"
		stroke-linecap="round"
	/>
</svg>